<svg width="536" height="57" viewBox="0 0 536 57" fill="none" xmlns="http://www.w3.org/2000/svg">
<path d="M28.184 43H0.24V37.12L10.264 26.984C12.28 24.8933 13.904 23.1573 15.136 21.776C16.368 20.3573 17.264 19.088 17.824 17.968C18.384 16.8107 18.664 15.5787 18.664 14.272C18.664 12.6667 18.216 11.472 17.32 10.688C16.4613 9.904 15.2853 9.512 13.792 9.512C12.2613 9.512 10.768 9.86666 9.312 10.576C7.856 11.2853 6.32533 12.2933 4.72 13.6L0.128 8.168C1.28533 7.16 2.49867 6.22666 3.768 5.368C5.07467 4.50933 6.568 3.81866 8.248 3.296C9.96533 2.736 12.0187 2.456 14.408 2.456C17.0213 2.456 19.2613 2.94133 21.128 3.912C23.032 4.84533 24.488 6.13333 25.496 7.776C26.5413 9.38133 27.064 11.2107 27.064 13.264C27.064 14.944 26.8027 16.4933 26.28 17.912C25.7947 19.3307 25.0667 20.712 24.096 22.056C23.1627 23.3627 22.0053 24.7253 20.624 26.144C19.2427 27.5253 17.6747 29.0373 15.92 30.68L10.768 35.496V35.888H28.184V43ZM53.1749 43H44.7189V19.872C44.7189 19.2373 44.7189 18.4533 44.7189 17.52C44.7562 16.5867 44.7935 15.616 44.8309 14.608C44.8682 13.6 44.9055 12.704 44.9429 11.92C44.7562 12.144 44.3455 12.5547 43.7109 13.152C43.1135 13.712 42.5535 14.216 42.0309 14.664L37.4389 18.36L33.3509 13.264L46.2309 3.016H53.1749V43ZM114.833 22.616C114.833 27.096 113.974 30.848 112.257 33.872C110.539 36.896 108.038 39.1733 104.753 40.704C101.505 42.2347 97.5846 43 92.9926 43H81.6806V3.016H94.2246C98.406 3.016 102.027 3.76266 105.089 5.256C108.187 6.74933 110.577 8.952 112.257 11.864C113.974 14.7387 114.833 18.3227 114.833 22.616ZM106.041 22.84C106.041 19.8907 105.611 17.464 104.753 15.56C103.894 13.656 102.606 12.256 100.889 11.36C99.2086 10.4267 97.1366 9.96 94.6726 9.96H90.1366V36H93.7766C97.9206 36 101.001 34.8987 103.017 32.696C105.033 30.4933 106.041 27.208 106.041 22.84ZM135.006 11.808C139.112 11.808 142.248 12.704 144.414 14.496C146.616 16.2507 147.718 18.9573 147.718 22.616V43H141.894L140.27 38.856H140.046C139.187 39.9387 138.291 40.8347 137.358 41.544C136.462 42.2533 135.416 42.7573 134.222 43.056C133.064 43.392 131.627 43.56 129.91 43.56C128.118 43.56 126.494 43.224 125.038 42.552C123.619 41.8427 122.499 40.7787 121.678 39.36C120.856 37.904 120.446 36.0747 120.446 33.872C120.446 30.624 121.584 28.2347 123.862 26.704C126.139 25.136 129.555 24.2773 134.11 24.128L139.43 23.96V22.616C139.43 21.0107 139 19.8347 138.142 19.088C137.32 18.3413 136.163 17.968 134.67 17.968C133.176 17.968 131.72 18.192 130.302 18.64C128.883 19.0507 127.464 19.5733 126.046 20.208L123.302 14.552C124.944 13.6933 126.755 13.0213 128.734 12.536C130.75 12.0507 132.84 11.808 135.006 11.808ZM136.182 28.944C133.494 29.0187 131.627 29.504 130.582 30.4C129.536 31.296 129.014 32.472 129.014 33.928C129.014 35.1973 129.387 36.112 130.134 36.672C130.88 37.1947 131.851 37.456 133.046 37.456C134.838 37.456 136.35 36.9333 137.582 35.888C138.814 34.8053 139.43 33.2933 139.43 31.352V28.832L136.182 28.944ZM151.891 12.424H161.019L166.787 29.616C166.973 30.176 167.123 30.736 167.235 31.296C167.384 31.856 167.496 32.4347 167.571 33.032C167.683 33.6293 167.757 34.264 167.795 34.936H167.963C168.075 33.9653 168.224 33.0507 168.411 32.192C168.635 31.296 168.877 30.4373 169.139 29.616L174.795 12.424H183.755L170.819 46.92C170.035 49.0107 169.008 50.7653 167.739 52.184C166.507 53.6027 165.069 54.6667 163.427 55.376C161.784 56.0853 159.992 56.44 158.051 56.44C157.117 56.44 156.296 56.384 155.587 56.272C154.915 56.1973 154.317 56.104 153.795 55.992V49.384C154.205 49.4587 154.691 49.5333 155.251 49.608C155.848 49.6827 156.464 49.72 157.099 49.72C158.256 49.72 159.245 49.4773 160.067 48.992C160.925 48.5067 161.635 47.8347 162.195 46.976C162.755 46.1547 163.203 45.2587 163.539 44.288L164.043 42.776L151.891 12.424ZM209.477 33.928C209.477 35.9813 208.992 37.736 208.021 39.192C207.051 40.6107 205.595 41.6933 203.653 42.44C201.712 43.1867 199.304 43.56 196.429 43.56C194.301 43.56 192.472 43.4107 190.941 43.112C189.411 42.8507 187.88 42.4027 186.349 41.768V34.88C187.992 35.6267 189.765 36.2427 191.669 36.728C193.573 37.2133 195.253 37.456 196.709 37.456C198.352 37.456 199.509 37.2133 200.181 36.728C200.891 36.2427 201.245 35.608 201.245 34.824C201.245 34.3013 201.096 33.8347 200.797 33.424C200.536 33.0133 199.939 32.5467 199.005 32.024C198.072 31.5013 196.616 30.8293 194.637 30.008C192.733 29.1867 191.165 28.384 189.933 27.6C188.701 26.7787 187.787 25.808 187.189 24.688C186.592 23.5307 186.293 22.0933 186.293 20.376C186.293 17.5387 187.395 15.4107 189.597 13.992C191.8 12.5733 194.731 11.864 198.389 11.864C200.293 11.864 202.104 12.0507 203.821 12.424C205.539 12.7973 207.312 13.4133 209.141 14.272L206.621 20.264C205.613 19.816 204.643 19.424 203.709 19.088C202.776 18.752 201.861 18.4907 200.965 18.304C200.107 18.1173 199.211 18.024 198.277 18.024C197.045 18.024 196.112 18.192 195.477 18.528C194.88 18.864 194.581 19.368 194.581 20.04C194.581 20.5253 194.731 20.9733 195.029 21.384C195.365 21.7573 195.981 22.168 196.877 22.616C197.811 23.064 199.173 23.6613 200.965 24.408C202.72 25.1173 204.232 25.864 205.501 26.648C206.771 27.3947 207.741 28.3467 208.413 29.504C209.123 30.624 209.477 32.0987 209.477 33.928ZM258.3 27.656C258.3 30.1947 257.946 32.4533 257.236 34.432C256.564 36.4107 255.575 38.0907 254.268 39.472C252.999 40.816 251.45 41.8427 249.62 42.552C247.791 43.224 245.719 43.56 243.404 43.56C241.276 43.56 239.298 43.224 237.468 42.552C235.676 41.8427 234.127 40.816 232.82 39.472C231.514 38.0907 230.487 36.4107 229.74 34.432C229.031 32.4533 228.676 30.1947 228.676 27.656C228.676 24.2587 229.274 21.4027 230.468 19.088C231.663 16.736 233.38 14.944 235.62 13.712C237.86 12.48 240.511 11.864 243.572 11.864C246.447 11.864 248.986 12.48 251.188 13.712C253.391 14.944 255.127 16.736 256.396 19.088C257.666 21.4027 258.3 24.2587 258.3 27.656ZM237.188 27.656C237.188 29.672 237.394 31.3707 237.804 32.752C238.252 34.096 238.943 35.1227 239.876 35.832C240.81 36.504 242.023 36.84 243.516 36.84C245.01 36.84 246.204 36.504 247.1 35.832C248.034 35.1227 248.706 34.096 249.116 32.752C249.564 31.3707 249.788 29.672 249.788 27.656C249.788 25.64 249.564 23.96 249.116 22.616C248.706 21.272 248.034 20.264 247.1 19.592C246.167 18.92 244.954 18.584 243.46 18.584C241.258 18.584 239.652 19.3493 238.644 20.88C237.674 22.3733 237.188 24.632 237.188 27.656ZM282.108 18.696H274.884V43H266.54V18.696H261.948V14.664L266.54 12.424V10.184C266.54 7.57067 266.969 5.55467 267.828 4.136C268.724 2.68 269.975 1.65333 271.58 1.056C273.223 0.458665 275.145 0.159997 277.348 0.159997C278.991 0.159997 280.465 0.290665 281.772 0.551999C283.116 0.813331 284.199 1.112 285.02 1.448L282.892 7.552C282.257 7.36533 281.567 7.19733 280.82 7.048C280.073 6.86133 279.215 6.768 278.244 6.768C277.087 6.768 276.228 7.12267 275.668 7.832C275.145 8.54133 274.884 9.43733 274.884 10.52V12.424H282.108V18.696Z" fill="#E6F9AF"/>
<path d="M326.599 37.456L299.439 25.472V21.552L326.599 8V14.552L307.895 23.232L326.599 30.904V37.456ZM505.325 3.016L490.429 43H482.869L497.765 3.016H505.325ZM508.017 30.904L526.721 23.232L508.017 14.552V8L535.177 21.552V25.472L508.017 37.456V30.904Z" fill="#18314F"/>
<path d="M351.086 9.512C349.481 9.512 348.043 9.82933 346.774 10.464C345.542 11.0987 344.497 12.0133 343.638 13.208C342.779 14.3653 342.126 15.784 341.678 17.464C341.267 19.144 341.062 21.0293 341.062 23.12C341.062 25.9573 341.398 28.384 342.07 30.4C342.779 32.3787 343.881 33.8907 345.374 34.936C346.867 35.9813 348.771 36.504 351.086 36.504C352.729 36.504 354.353 36.3173 355.958 35.944C357.601 35.5707 359.374 35.048 361.278 34.376V41.488C359.523 42.1973 357.787 42.72 356.07 43.056C354.353 43.392 352.43 43.56 350.302 43.56C346.195 43.56 342.798 42.72 340.11 41.04C337.459 39.3227 335.499 36.9333 334.23 33.872C332.961 30.7733 332.326 27.1707 332.326 23.064C332.326 20.04 332.737 17.2773 333.558 14.776C334.379 12.2373 335.574 10.0533 337.142 8.224C338.747 6.39467 340.707 4.976 343.022 3.968C345.374 2.96 348.062 2.456 351.086 2.456C353.065 2.456 355.043 2.71733 357.022 3.24C359.038 3.72533 360.961 4.39733 362.79 5.256L360.046 12.144C358.553 11.4347 357.041 10.8187 355.51 10.296C354.017 9.77333 352.542 9.512 351.086 9.512ZM396.878 27.656C396.878 30.1947 396.524 32.4533 395.814 34.432C395.142 36.4107 394.153 38.0907 392.846 39.472C391.577 40.816 390.028 41.8427 388.198 42.552C386.369 43.224 384.297 43.56 381.982 43.56C379.854 43.56 377.876 43.224 376.046 42.552C374.254 41.8427 372.705 40.816 371.398 39.472C370.092 38.0907 369.065 36.4107 368.318 34.432C367.609 32.4533 367.254 30.1947 367.254 27.656C367.254 24.2587 367.852 21.4027 369.046 19.088C370.241 16.736 371.958 14.944 374.198 13.712C376.438 12.48 379.089 11.864 382.15 11.864C385.025 11.864 387.564 12.48 389.766 13.712C391.969 14.944 393.705 16.736 394.974 19.088C396.244 21.4027 396.878 24.2587 396.878 27.656ZM375.766 27.656C375.766 29.672 375.972 31.3707 376.382 32.752C376.83 34.096 377.521 35.1227 378.454 35.832C379.388 36.504 380.601 36.84 382.094 36.84C383.588 36.84 384.782 36.504 385.678 35.832C386.612 35.1227 387.284 34.096 387.694 32.752C388.142 31.3707 388.366 29.672 388.366 27.656C388.366 25.64 388.142 23.96 387.694 22.616C387.284 21.272 386.612 20.264 385.678 19.592C384.745 18.92 383.532 18.584 382.038 18.584C379.836 18.584 378.23 19.3493 377.222 20.88C376.252 22.3733 375.766 24.632 375.766 27.656ZM413.462 43.56C410.065 43.56 407.284 42.2347 405.118 39.584C402.99 36.896 401.926 32.9573 401.926 27.768C401.926 22.5413 403.009 18.584 405.174 15.896C407.34 13.208 410.177 11.864 413.686 11.864C415.142 11.864 416.43 12.0693 417.55 12.48C418.67 12.8533 419.622 13.376 420.406 14.048C421.228 14.72 421.918 15.4853 422.478 16.344H422.758C422.646 15.7467 422.516 14.888 422.366 13.768C422.217 12.6107 422.142 11.4347 422.142 10.24V0.439997H430.486V43H424.102L422.478 39.024H422.142C421.62 39.8453 420.948 40.6107 420.126 41.32C419.342 41.992 418.409 42.5333 417.326 42.944C416.244 43.3547 414.956 43.56 413.462 43.56ZM416.374 36.896C418.689 36.896 420.313 36.224 421.246 34.88C422.18 33.4987 422.665 31.4453 422.702 28.72V27.824C422.702 24.8373 422.236 22.56 421.302 20.992C420.406 19.424 418.726 18.64 416.262 18.64C414.433 18.64 412.996 19.4427 411.95 21.048C410.905 22.616 410.382 24.8933 410.382 27.88C410.382 30.8667 410.905 33.1253 411.95 34.656C412.996 36.1493 414.47 36.896 416.374 36.896ZM451.812 11.864C454.649 11.864 457.076 12.4053 459.092 13.488C461.145 14.5707 462.732 16.1387 463.852 18.192C464.972 20.2453 465.532 22.7653 465.532 25.752V29.784H445.82C445.894 32.136 446.585 33.984 447.892 35.328C449.236 36.672 451.084 37.344 453.436 37.344C455.414 37.344 457.206 37.1573 458.812 36.784C460.417 36.3733 462.078 35.7573 463.796 34.936V41.376C462.302 42.1227 460.716 42.664 459.036 43C457.393 43.3733 455.396 43.56 453.044 43.56C449.982 43.56 447.276 43 444.924 41.88C442.572 40.7227 440.724 38.9867 439.38 36.672C438.036 34.3573 437.364 31.4453 437.364 27.936C437.364 24.352 437.961 21.384 439.156 19.032C440.388 16.6427 442.086 14.8507 444.252 13.656C446.417 12.4613 448.937 11.864 451.812 11.864ZM451.868 17.8C450.262 17.8 448.918 18.3227 447.836 19.368C446.79 20.4133 446.174 22.0373 445.988 24.24H457.692C457.692 23.008 457.468 21.9067 457.02 20.936C456.609 19.9653 455.974 19.2 455.116 18.64C454.257 18.08 453.174 17.8 451.868 17.8Z" fill="#C8F152"/>
</svg>
