<svg width="531" height="205" viewBox="0 0 531 205" fill="none" xmlns="http://www.w3.org/2000/svg">
<path d="M145.618 87.0566C145.353 86.2789 144.907 85.5759 144.318 85.0058C144.1 84.8031 143.865 84.6205 143.614 84.4604C141.619 83.124 138.637 82.8244 136.74 84.4604C136.549 84.6268 136.373 84.8093 136.213 85.0058C135.647 85.7048 135.066 86.3884 134.469 87.0566C133.491 88.178 132.489 89.261 131.441 90.3133C131.143 90.6052 130.845 90.9048 130.539 91.1967C130.363 91.3733 130.187 91.5423 130.012 91.7113C129.339 92.3565 128.651 92.9786 127.955 93.5931C127.588 93.9234 127.221 94.246 126.846 94.5609C126.288 95.0295 125.73 95.498 125.164 95.9512C125.11 95.9896 125.057 96.028 125.003 96.0741C124.988 96.0817 124.98 96.0971 124.965 96.1048C124.957 96.1048 124.95 96.1048 124.942 96.1201C124.921 96.1284 124.903 96.1416 124.889 96.1586C124.72 96.2738 124.606 96.3506 124.522 96.4197C124.552 96.4044 124.583 96.3813 124.613 96.3659C124.476 96.4735 124.33 96.581 124.193 96.6886C122.855 97.6794 121.486 98.6318 120.087 99.5228C116.625 101.749 112.988 103.688 109.214 105.322C108.961 105.422 108.701 105.529 108.441 105.629C98.5581 109.697 87.8372 111.284 77.2061 110.253C76.1203 110.169 75.0345 110.053 73.9488 109.907C72.6948 109.723 71.4485 109.5 70.2098 109.247C65.494 108.302 60.8798 106.902 56.4311 105.068C50.8662 102.509 45.5735 99.3896 40.6338 95.7592C39.8692 95.2138 39.0969 94.6685 38.3246 94.1385C39.2039 91.9725 40.068 89.8064 40.9091 87.625C41.3296 86.5727 41.7349 85.5204 42.1325 84.4604C45.2598 76.2956 48.196 68.0539 51.0099 59.7815C53.8543 51.4016 56.5381 42.973 59.0614 34.4958C59.3214 33.6355 59.5737 32.7753 59.8184 31.915C61.1412 27.437 62.4105 22.9487 63.6263 18.4503C63.741 18.0125 63.8633 17.5823 63.9704 17.1445C64.3221 15.8541 64.6662 14.5637 65.0026 13.2733C65.7672 10.3622 64.0392 6.88272 60.9959 6.18375C59.5307 5.80637 57.9769 6.01504 56.6618 6.76583C55.3467 7.51662 54.3731 8.75089 53.946 10.2086C53.6172 11.4529 53.2885 12.6895 52.952 13.9338C51.3387 19.948 49.6412 25.9417 47.8596 31.915C47.5996 32.7753 47.3396 33.6355 47.0797 34.4958C43.1495 47.5073 38.8344 60.3883 34.1344 73.1387C33.5686 74.6826 32.9951 76.2213 32.414 77.755C32.1311 78.5077 31.8482 79.2604 31.5576 80.0132C30.9995 81.4956 30.426 82.978 29.8525 84.4604C29.5237 85.3284 29.1872 86.1963 28.8509 87.0566C28.6291 87.602 28.415 88.1473 28.2009 88.685C26.0208 87.8986 23.7621 87.3526 21.4645 87.0566L21.0975 87.0105C19.3162 86.7953 17.5148 86.8107 15.7374 87.0566C13.0773 87.3684 10.5179 88.2634 8.23999 89.6782C5.96213 91.0931 4.02146 92.9933 2.55517 95.2445C-1.09212 101.013 -1.04624 109.262 4.06914 114.163C9.33745 119.209 17.3126 119.171 23.5137 116.014C26.7999 114.228 29.5708 111.619 31.5576 108.44C32.3188 107.288 33.0182 106.096 33.6527 104.869C33.8133 104.976 33.9739 105.084 34.1344 105.199C34.7461 105.629 35.3579 106.067 35.9619 106.497C39.4815 109.059 43.1906 111.346 47.0567 113.341C55.3697 117.492 64.3182 120.211 73.5283 121.383C73.7347 121.406 73.9335 121.437 74.1399 121.46C75.1569 121.59 76.1815 121.69 77.2061 121.775C91.904 122.887 106.62 119.866 119.704 113.049C120.813 112.473 121.912 111.869 123 111.236C124.69 110.253 126.341 109.209 127.955 108.102C128.834 107.503 129.69 106.897 130.539 106.259C134.248 103.515 137.705 100.443 140.869 97.0803C142.07 95.8129 143.219 94.5046 144.318 93.1553C145.357 92.0515 145.955 90.6027 146 89.0844C145.994 88.3909 145.865 87.7042 145.618 87.0566V87.0566ZM19.0024 105.353C19.163 105.237 19.3235 105.115 19.4765 104.992C19.4306 105.107 19.2088 105.237 19.0024 105.353H19.0024ZM21.4569 102.872C21.281 103.071 21.1204 103.271 20.9445 103.471C20.4095 104.072 19.8347 104.637 19.2241 105.161C19.14 105.237 19.0483 105.314 18.9565 105.383C18.9555 105.383 18.9545 105.384 18.9536 105.384C18.9526 105.384 18.9518 105.385 18.9511 105.386C18.9503 105.386 18.9498 105.387 18.9494 105.388C18.949 105.389 18.9488 105.39 18.9489 105.391C18.8384 105.441 18.7312 105.497 18.6277 105.56C18.2989 105.76 17.9625 105.944 17.6184 106.113C16.9447 106.362 16.2516 106.555 15.5463 106.689C15.0043 106.729 14.4603 106.734 13.9176 106.705H13.9023C13.5278 106.621 13.1578 106.518 12.7936 106.397C12.6101 106.305 12.4342 106.198 12.2583 106.09C12.1895 106.029 12.1283 105.967 12.0901 105.929C12.0154 105.86 11.9464 105.786 11.8837 105.706C11.8838 105.705 11.8835 105.704 11.8832 105.703C11.8828 105.702 11.8823 105.701 11.8815 105.701C11.8808 105.7 11.88 105.699 11.879 105.699C11.8781 105.698 11.8771 105.698 11.8761 105.698C11.7919 105.545 11.7002 105.391 11.6161 105.237C11.6117 105.233 11.609 105.228 11.6085 105.222C11.5473 105.03 11.4938 104.83 11.4479 104.631C11.4313 104.28 11.4338 103.929 11.4555 103.578C11.5581 103.088 11.6961 102.605 11.8684 102.134C12.0232 101.801 12.1995 101.477 12.396 101.167C12.4113 101.136 12.4878 101.013 12.5719 100.875C12.5795 100.867 12.5795 100.867 12.5795 100.859C12.6942 100.729 12.8089 100.59 12.9313 100.468C13.1377 100.237 13.3595 100.037 13.5812 99.8301C14.0125 99.5465 14.4592 99.2875 14.9193 99.0543C15.6493 98.7938 16.3983 98.5909 17.1597 98.4475C18.2824 98.3579 19.4108 98.3682 20.5317 98.4782C21.5934 98.6633 22.6409 98.9225 23.6667 99.254C23.045 100.466 22.3371 101.631 21.5487 102.741C21.518 102.787 21.4875 102.833 21.4569 102.872V102.872ZM12.9542 100.345C12.8868 100.453 12.8073 100.554 12.7171 100.644C12.7778 100.531 12.8581 100.43 12.9542 100.345V100.345Z" fill="#C8F152"/>
<path d="M123 8.74105C122.93 11.1446 122.86 13.5482 122.79 15.9518C122.643 21.2872 122.49 26.6251 122.332 31.9655C122.169 37.9745 121.999 43.9809 121.82 49.9847C121.735 53.0849 121.647 56.1851 121.556 59.2852C121.316 67.6365 121.077 75.9853 120.842 84.3315C120.819 85.1965 120.788 86.0538 120.764 86.9188C120.648 91.06 120.531 95.2012 120.415 99.3424C120.283 103.836 120.154 108.329 120.027 112.822C119.934 116.19 119.838 119.561 119.74 122.934C119.041 147.376 118.342 171.817 117.644 196.259C117.614 197.772 116.991 199.216 115.906 200.286C114.82 201.357 113.357 201.971 111.822 202C110.282 201.988 108.808 201.379 107.719 200.305C106.63 199.231 106.012 197.778 106 196.259C106.388 182.511 106.781 168.763 107.18 155.015C107.529 142.584 107.884 130.153 108.243 117.721C108.36 113.626 108.476 109.528 108.593 105.428C108.771 99.2582 108.947 93.0885 109.121 86.9188C109.144 86.0538 109.175 85.1965 109.198 84.3315C109.214 83.5737 109.237 82.8235 109.26 82.0657C109.602 70.0861 109.943 58.1039 110.285 46.1191C110.425 41.4038 110.559 36.6859 110.689 31.9655C110.844 26.5842 110.999 21.2055 111.154 15.8293C111.224 13.464 111.286 11.1064 111.356 8.74105C111.386 7.22753 112.009 5.78413 113.094 4.71372C114.18 3.64331 115.643 3.0291 117.178 3C118.718 3.01224 120.192 3.62104 121.281 4.69505C122.37 5.76907 122.988 7.22221 123 8.74105V8.74105Z" fill="#C8F152"/>
<path d="M437.945 10.2094C431.932 33.0878 424.745 55.6383 416.413 77.7706C414.113 83.8755 411.761 89.9682 409.247 95.9873L409.825 94.611C408.703 97.478 407.27 100.212 405.551 102.764C405.434 102.928 405.315 103.091 405.194 103.252C405.788 102.489 405.901 102.338 405.533 102.8C405.339 103.031 405.147 103.263 404.946 103.488C404.411 104.09 403.836 104.655 403.226 105.18C403.073 105.312 402.917 105.442 402.758 105.568L403.476 105.008C403.392 105.205 402.808 105.467 402.626 105.579C402.037 105.936 401.423 106.249 400.787 106.515L402.157 105.934C401.117 106.355 400.031 106.654 398.922 106.826L400.447 106.62C399.357 106.771 398.253 106.783 397.16 106.655L398.685 106.861C397.791 106.737 396.916 106.501 396.081 106.156L397.451 106.737C397.006 106.542 396.577 106.312 396.168 106.049C395.96 105.913 395.322 105.428 396.156 106.068C397.023 106.733 396.268 106.125 396.089 105.948C395.941 105.801 395.807 105.641 395.661 105.491C394.987 104.796 396.423 106.687 395.965 105.874C395.72 105.467 395.496 105.047 395.293 104.616L395.871 105.993C395.608 105.338 395.421 104.654 395.315 103.956L395.519 105.488C395.41 104.619 395.409 103.74 395.517 102.872L395.312 104.404C395.452 103.434 395.708 102.485 396.073 101.576L395.495 102.953C395.749 102.342 396.05 101.751 396.395 101.187C396.554 100.895 396.741 100.62 396.952 100.364C396.99 100.376 395.982 101.526 396.517 100.945C396.657 100.794 396.788 100.634 396.929 100.483C397.156 100.242 397.398 100.021 397.637 99.7931C398.436 99.0291 396.519 100.535 397.441 99.9306C398.109 99.4894 398.812 99.1042 399.543 98.7789L398.173 99.3597C399.397 98.8545 400.681 98.5085 401.993 98.3304L400.468 98.5362C402.111 98.3463 403.77 98.366 405.408 98.5949L403.884 98.3891C405.957 98.705 407.984 99.2779 409.918 100.095L408.548 99.5137C412.669 101.291 416.319 103.931 419.962 106.519C423.481 109.079 427.189 111.366 431.054 113.361C439.367 117.514 448.316 120.234 457.527 121.408C470.736 123.033 484.141 121.3 496.51 116.367C508.879 111.434 519.817 103.458 528.32 93.1728C529.358 92.0671 529.955 90.6174 530 89.0985C529.989 87.5725 529.387 86.1109 528.32 85.0242C526.216 83.0837 522.242 82.5358 520.21 85.0242C518.285 87.3863 516.215 89.6254 514.012 91.7287C512.983 92.709 511.928 93.659 510.844 94.5788C510.226 95.1042 509.599 95.6193 508.963 96.1239C508.662 96.3627 507.725 96.9982 509.164 95.9722C508.834 96.2074 508.518 96.4642 508.192 96.7057C503.377 100.273 498.158 103.255 492.646 105.59L494.016 105.01C488.101 107.503 481.888 109.213 475.534 110.097L477.058 109.892C470.522 110.755 463.9 110.746 457.367 109.862L458.891 110.068C452.359 109.167 445.97 107.418 439.885 104.867L441.255 105.448C435.382 102.837 429.81 99.5937 424.634 95.7744C421.941 93.7705 419.1 91.9743 416.137 90.4012C412.685 88.6296 408.947 87.4881 405.098 87.0297C397.88 86.1764 390.526 89.0007 386.558 95.2656C382.907 101.031 382.954 109.281 388.067 114.184C393.334 119.233 401.31 119.191 407.516 116.032C413.494 112.99 417.084 106.671 419.609 100.712C425.291 87.3018 430.321 73.5819 435.008 59.7923C439.645 46.1496 443.85 32.3688 447.623 18.45C448.091 16.7261 448.551 15.0005 449.005 13.273C449.77 10.3623 448.041 6.88111 445 6.18516C443.534 5.80607 441.979 6.01386 440.663 6.76468C439.347 7.5155 438.372 8.75062 437.945 10.2095L437.945 10.2094Z" fill="#C8F152"/>
<path d="M495.358 8.74103L493.263 82.0678L491.179 155.013L490 196.259C490.013 197.778 490.631 199.23 491.719 200.304C492.808 201.378 494.281 201.987 495.821 202C497.356 201.971 498.819 201.356 499.904 200.286C500.99 199.216 501.612 197.772 501.642 196.259L503.737 122.932L505.821 49.9873L507 8.74103C506.987 7.22241 506.369 5.76966 505.281 4.69579C504.192 3.62193 502.719 3.01292 501.179 3C499.644 3.02925 498.181 3.6435 497.096 4.71387C496.01 5.78425 495.388 7.22757 495.358 8.74103V8.74103Z" fill="#C8F152"/>
<path d="M17.5 110C22.1944 110 26 106.194 26 101.5C26 96.8056 22.1944 93 17.5 93C12.8056 93 9 96.8056 9 101.5C9 106.194 12.8056 110 17.5 110Z" fill="#C8F152"/>
<path d="M118.5 202C123.194 202 127 198.194 127 193.5C127 188.806 123.194 185 118.5 185C113.806 185 110 188.806 110 193.5C110 198.194 113.806 202 118.5 202Z" fill="#C8F152"/>
<path d="M502.5 202C507.194 202 511 198.194 511 193.5C511 188.806 507.194 185 502.5 185C497.806 185 494 188.806 494 193.5C494 198.194 497.806 202 502.5 202Z" fill="#C8F152"/>
<path d="M522.5 95C527.194 95 531 91.1944 531 86.5C531 81.8056 527.194 78 522.5 78C517.806 78 514 81.8056 514 86.5C514 91.1944 517.806 95 522.5 95Z" fill="#C8F152"/>
<path d="M498.5 17C503.194 17 507 13.1944 507 8.5C507 3.80558 503.194 0 498.5 0C493.806 0 490 3.80558 490 8.5C490 13.1944 493.806 17 498.5 17Z" fill="#C8F152"/>
<path d="M147 86.52C146.995 88.7013 146.151 90.7972 144.644 92.3739C143.137 93.9505 141.081 94.8874 138.902 94.9905C136.723 95.0936 134.588 94.3551 132.938 92.9278C131.289 91.5004 130.251 89.4936 130.04 87.3225C129.829 85.1514 130.461 82.9823 131.804 81.264C133.148 79.5456 135.101 78.4097 137.259 78.0911C139.417 77.7726 141.615 78.2959 143.397 79.5527C145.18 80.8095 146.412 82.7036 146.837 84.8431C146.946 85.3953 147.001 85.957 147 86.52V86.52Z" fill="#C8F152"/>
<path d="M123 8.51998C122.995 10.7013 122.151 12.7972 120.644 14.3739C119.137 15.9505 117.081 16.8874 114.902 16.9905C112.723 17.0936 110.588 16.3551 108.938 14.9278C107.289 13.5005 106.251 11.4936 106.04 9.32253C105.829 7.15144 106.461 4.98228 107.804 3.26396C109.148 1.54564 111.101 0.409677 113.259 0.0911441C115.417 -0.227389 117.615 0.295892 119.397 1.5527C121.18 2.80951 122.412 4.70363 122.837 6.84312C122.946 7.39533 123.001 7.95702 123 8.51998V8.51998Z" fill="#C8F152"/>
<path d="M403.5 113C408.194 113 412 109.418 412 105C412 100.582 408.194 97 403.5 97C398.806 97 395 100.582 395 105C395 109.418 398.806 113 403.5 113Z" fill="#C8F152"/>
<path d="M271 205C323.467 205 366 162.467 366 110C366 57.5329 323.467 15 271 15C218.533 15 176 57.5329 176 110C176 162.467 218.533 205 271 205Z" fill="#18314F"/>
<path d="M321 157.961C321 173.01 297.351 159.247 271.998 159.247C246.644 159.247 221 172.441 221 157.393C221 148.812 229.173 136.878 240.899 128.211C249.733 121.678 260.581 117 271.479 117C282.685 117 293.663 122.065 302.42 129.017C313.472 137.784 321 149.563 321 157.961Z" fill="#0D0630"/>
<path d="M302 129C288.637 126.973 264.468 124.501 241 128.195C249.76 121.672 260.517 117 271.322 117C282.431 117 293.317 122.057 302 129Z" fill="#F6F8FB"/>
<path d="M237.408 97.7757C239.231 97.6767 247.813 97.0532 253.265 94.0524C254.14 93.5552 255.129 93.2742 256.144 93.2339C257.877 93.186 259.871 93.8845 258.595 97.7937C256.526 104.188 244.515 111.383 237.06 110.984C229.891 110.6 221.386 107.812 215.77 98.0095C215.232 97.0664 214.967 96.0008 215.003 94.9247C215.068 92.9462 215.814 90.4669 219.662 93.2309C224.862 96.9633 234.727 97.6707 236.706 97.7757C236.94 97.7878 237.174 97.7878 237.408 97.7757V97.7757Z" fill="#0D0630"/>
<path d="M305.898 97.7757C307.68 97.6767 316.068 97.0532 321.395 94.0524C322.251 93.5552 323.217 93.2742 324.209 93.2339C325.903 93.186 327.852 93.8845 326.604 97.7937C324.582 104.188 312.844 111.383 305.559 110.984C298.552 110.6 290.241 107.812 284.753 98.0095C284.227 97.0664 283.968 96.0008 284.003 94.9247C284.067 92.9462 284.795 90.4669 288.556 93.2309C293.638 96.9633 303.279 97.6707 305.212 97.7757C305.441 97.7878 305.67 97.7878 305.898 97.7757V97.7757Z" fill="#0D0630"/>
</svg>
