<svg width="84" height="32" viewBox="0 0 84 32" fill="none" xmlns="http://www.w3.org/2000/svg">
<path d="M80.5479 0H3.45205C1.54554 0 0 2.68629 0 6V26C0 29.3137 1.54554 32 3.45205 32H80.5479C82.4545 32 84 29.3137 84 26V6C84 2.68629 82.4545 0 80.5479 0Z" fill="#15847D"/>
<path d="M41.8956 20.6436H40.1656L35.7295 13.5821V20.6436H34V10.6905H35.7295L40.1796 17.7793V10.6905H41.8956V20.6436Z" fill="white"/>
<path d="M47.2906 20.7803C46.2066 20.7803 45.3216 20.4476 44.6386 19.7823C43.9596 19.1169 43.6196 18.2305 43.6196 17.1231V16.9317C43.6196 16.1888 43.7636 15.5258 44.0506 14.9424C44.3376 14.3545 44.7436 13.9034 45.2676 13.5889C45.7956 13.2699 46.3976 13.1104 47.0716 13.1104C48.0836 13.1104 48.8786 13.4294 49.4576 14.0674C50.0416 14.7054 50.3326 15.6101 50.3326 16.7813V17.5879H45.6226C45.6866 18.071 45.8776 18.4584 46.1966 18.75C46.5206 19.0417 46.9286 19.1875 47.4206 19.1875C48.1816 19.1875 48.7766 18.9118 49.2046 18.3604L50.1756 19.4473C49.8796 19.8666 49.4786 20.1947 48.9726 20.4317C48.4666 20.6641 47.9056 20.7803 47.2906 20.7803ZM47.0656 14.71C46.6736 14.71 46.3546 14.8422 46.1086 15.1065C45.8666 15.3708 45.7116 15.7491 45.6436 16.2413H48.3916V16.084C48.3826 15.6465 48.2636 15.3093 48.0356 15.0723C47.8076 14.8308 47.4846 14.71 47.0656 14.71Z" fill="white"/>
<path d="M54.0256 11.4288V13.2471H55.2906V14.6963H54.0256V18.3877C54.0256 18.6612 54.0786 18.8571 54.1836 18.9756C54.2876 19.0941 54.4886 19.1534 54.7846 19.1534C55.0036 19.1534 55.1976 19.1374 55.3656 19.1055V20.6026C54.9786 20.7211 54.5796 20.7803 54.1696 20.7803C52.7846 20.7803 52.0776 20.0808 52.0506 18.6817V14.6963H50.9706V13.2471H52.0506V11.4288H54.0256Z" fill="white"/>
<path d="M58.6766 20.6436H56.6936V10.1436H58.6766V20.6436Z" fill="white"/>
<path d="M62.5946 20.6436H60.6126V13.2471H62.5946V20.6436ZM60.4966 11.3331C60.4966 11.0368 60.5946 10.793 60.7906 10.6016C60.9906 10.4102 61.2616 10.3145 61.6036 10.3145C61.9406 10.3145 62.2096 10.4102 62.4106 10.6016C62.6106 10.793 62.7116 11.0368 62.7116 11.3331C62.7116 11.6338 62.6086 11.8799 62.4036 12.0713C62.2026 12.2627 61.9366 12.3584 61.6036 12.3584C61.2706 12.3584 61.0026 12.2627 60.7966 12.0713C60.5966 11.8799 60.4966 11.6338 60.4966 11.3331Z" fill="white"/>
<path d="M64.9686 20.6436V14.6963H63.8686V13.2471H64.9686V12.6182C64.9686 11.7888 65.2056 11.1462 65.6796 10.6905C66.1586 10.2302 66.8256 10 67.6826 10C67.9556 10 68.2906 10.0456 68.6876 10.1368L68.6666 11.668C68.5026 11.627 68.3026 11.6065 68.0656 11.6065C67.3226 11.6065 66.9516 11.9551 66.9516 12.6524V13.2471H68.4206V14.6963H66.9516V20.6436H64.9686Z" fill="white"/>
<path d="M72.4076 17.8477L73.7756 13.2471H75.8946L72.9206 21.792L72.7566 22.1817C72.3146 23.1478 71.5856 23.6309 70.5696 23.6309C70.2816 23.6309 69.9906 23.5876 69.6946 23.501V22.004L69.9946 22.0108C70.3686 22.0108 70.6466 21.9538 70.8286 21.8399C71.0156 21.726 71.1616 21.5368 71.2666 21.2725L71.4986 20.6641L68.9076 13.2471H71.0336L72.4076 17.8477Z" fill="white"/>
<path d="M12.7635 11.2365C13.0039 11.3381 14.6839 12.0485 14.8999 12.1422C14.9137 12.1482 14.9297 12.1548 14.9404 12.1442C15.0851 12.0284 15.2712 11.9602 15.4573 11.9602C15.5411 11.9602 15.6248 11.9721 15.7085 11.9959C15.7202 11.9993 15.7344 12.0025 15.7444 11.9956C15.7516 11.9906 15.756 11.9839 15.7607 11.9765L17.4148 9.41474L16.9107 8.91076C16.5886 8.58861 16.4275 8.42753 16.2412 8.36861C16.0843 8.31897 15.9157 8.31897 15.7588 8.36861C15.5725 8.42753 15.4114 8.58861 15.0893 8.91076L12.7635 11.2365Z" fill="white"/>
<path d="M12.5276 16.2008L10.6043 13.3957L12.4008 11.5992C12.5686 11.6726 13.1766 11.9296 13.7233 12.1606L13.7335 12.1649C14.1499 12.3409 14.5289 12.5011 14.6478 12.5524C14.6598 12.5576 14.6707 12.5623 14.676 12.5742C14.6792 12.5814 14.6776 12.5908 14.676 12.5985C14.6639 12.656 14.6578 12.7135 14.6578 12.771C14.6578 12.9822 14.7406 13.1798 14.8853 13.3296C14.8972 13.3414 14.8852 13.3586 14.8747 13.3737L14.8691 13.382L13.0454 16.2073C13.0404 16.2149 13.0358 16.222 13.0282 16.227C13.0185 16.2333 13.005 16.2305 12.9938 16.2276C12.9227 16.2096 12.8465 16.198 12.7763 16.198C12.711 16.198 12.6396 16.2102 12.5678 16.223C12.56 16.2244 12.5521 16.2259 12.5457 16.2212C12.5387 16.2161 12.5326 16.208 12.5276 16.2008Z" fill="white"/>
<path d="M19.634 13.8066C19.5807 13.7473 19.5145 13.6944 19.4355 13.654C19.4336 13.653 19.4318 13.6524 19.43 13.6517C19.4268 13.6504 19.4236 13.6492 19.4208 13.6465C19.4114 13.6377 19.4078 13.6219 19.4098 13.6092L19.7187 11.7187L21.169 13.169L19.661 13.8106C19.6568 13.8124 19.6523 13.8134 19.6478 13.8134C19.6448 13.8134 19.6431 13.8134 19.6416 13.8128C19.6396 13.8121 19.6377 13.8102 19.634 13.8066Z" fill="white"/>
<path d="M19.9467 14.2124L21.5388 13.5388L23.0893 15.0892C23.4113 15.4113 23.5725 15.5725 23.6314 15.7588C23.6401 15.7863 23.6473 15.8141 23.6529 15.8422L19.9476 14.2733L19.9418 14.2709C19.9268 14.2649 19.9096 14.2579 19.9096 14.2426C19.9096 14.2276 19.9272 14.2204 19.9418 14.2143L19.9467 14.2124Z" fill="white"/>
<path d="M23.5896 16.34L19.7292 14.7073C19.7164 14.7019 19.7008 14.6957 19.6882 14.7016C19.6839 14.7037 19.6813 14.7071 19.6786 14.7108L19.6773 14.7125C19.5671 14.8586 19.4037 14.9516 19.2136 14.9784C19.1951 14.9784 19.1918 15.0018 19.189 15.0218L19.1878 15.0304L18.7623 17.6408L18.7613 17.6463C18.7589 17.6596 18.7563 17.6741 18.7656 17.6833C18.9172 17.7991 19.0068 17.9694 19.0275 18.1602C19.0275 18.1785 19.0491 18.1821 19.0689 18.1853L19.0705 18.1856L19.0765 18.1866L19.0808 18.1874L21.3417 18.6583L23.0893 16.9108C23.3535 16.6465 23.5096 16.4904 23.5896 16.34Z" fill="white"/>
<path d="M18.9152 18.6449L20.9395 19.0605L18.0651 21.9349L18.5575 18.9107L18.5581 18.9065C18.5586 18.9028 18.5591 18.8988 18.5605 18.8953C18.5643 18.8856 18.5748 18.8814 18.5848 18.8775L18.5896 18.8756C18.6988 18.8301 18.7915 18.758 18.8676 18.6688C18.8773 18.6575 18.8889 18.647 18.9036 18.6444C18.9069 18.6439 18.9119 18.6442 18.9152 18.6449Z" fill="white"/>
<path d="M17.4568 22.5432C17.5719 21.8372 18.001 19.2223 18.0509 18.9181C18.0519 18.9124 18.0543 18.9062 18.0567 18.9002C18.0619 18.8869 18.0669 18.8743 18.0557 18.8688C17.8537 18.7889 17.7043 18.6115 17.6461 18.4065C17.6453 18.4038 17.6448 18.4011 17.6444 18.3986C17.6432 18.3923 17.6421 18.3867 17.637 18.3816C17.6298 18.3745 17.6164 18.3704 17.6065 18.3683L13.6381 17.5499C13.6287 17.548 13.6173 17.5461 13.6089 17.5506C13.5991 17.5558 13.5939 17.5648 13.5883 17.5742L13.5875 17.5756L13.5794 17.5895C13.5692 17.607 13.5599 17.623 13.5489 17.6387L13.545 17.6438C13.5409 17.649 13.5368 17.6543 13.5362 17.6608C13.5354 17.6697 13.5411 17.6774 13.5468 17.6848L13.5509 17.6904L17.1327 22.8673L17.4568 22.5432Z" fill="white"/>
<path d="M13.1806 17.9965L16.78 23.2196C16.5413 23.456 16.4005 23.581 16.2412 23.6314C16.0843 23.681 15.9158 23.681 15.7588 23.6314C15.5725 23.5725 15.4114 23.4114 15.0893 23.0892L11.4922 19.4922L12.4316 18.0348C12.4362 18.0276 12.4404 18.021 12.4474 18.0161C12.4576 18.0088 12.4721 18.0123 12.4841 18.016C12.5807 18.0459 12.672 18.058 12.7694 18.058C12.895 18.058 13.0143 18.0329 13.1393 17.9828C13.1499 17.9785 13.1609 17.976 13.1694 17.9835C13.1734 17.9871 13.1775 17.9921 13.1806 17.9965Z" fill="white"/>
<path d="M11.1453 19.1453L12.0458 17.7483C12.0502 17.7414 12.0536 17.7348 12.049 17.728L12.046 17.7243L12.0439 17.7217C12.0283 17.7012 12.0128 17.6806 11.9972 17.657C11.9954 17.6542 11.9936 17.6512 11.9918 17.648C11.9844 17.6355 11.9765 17.6219 11.963 17.6219C11.9585 17.6219 11.954 17.6228 11.9498 17.6246L10.3198 18.3198L11.1453 19.1453Z" fill="white"/>
<path d="M11.6896 17.2199L9.9549 17.9548L8.91078 16.9108C8.73331 16.7333 8.60453 16.6045 8.51501 16.4936L11.6891 17.1518L11.701 17.154C11.7208 17.1572 11.7424 17.1607 11.7424 17.179C11.7424 17.1989 11.7189 17.2082 11.6989 17.2162L11.6896 17.2199Z" fill="white"/>
<path d="M8.33252 15.9568L11.912 16.707C11.918 16.7082 11.9244 16.7096 11.9297 16.7063C11.9384 16.7009 11.9446 16.6906 11.9495 16.6816C11.9907 16.6052 12.0492 16.5348 12.1077 16.4705C12.1198 16.4586 12.1079 16.4425 12.0971 16.4278L12.0917 16.4205C11.922 16.1773 10.4674 14.076 10.2472 13.7528L8.91073 15.0892C8.58859 15.4114 8.4275 15.5725 8.36859 15.7588C8.34816 15.8234 8.33614 15.8899 8.33252 15.9568Z" fill="white"/>
<path d="M16.1396 12.2872L17.7658 9.76582L19.2934 11.2934L18.9256 13.5722L18.9249 13.5784C18.9243 13.5836 18.9237 13.5894 18.9218 13.5935C18.9182 13.6015 18.9103 13.6033 18.9019 13.6052C18.8991 13.6059 18.8962 13.6066 18.8933 13.6075C18.816 13.6328 18.7442 13.6684 18.6826 13.7144C18.6797 13.7165 18.6773 13.719 18.675 13.7215C18.6703 13.7264 18.666 13.731 18.6588 13.7314C18.6541 13.7317 18.6461 13.7306 18.6418 13.7288L16.3145 12.7399L16.3098 12.738C16.2951 12.7319 16.2775 12.7246 16.2775 12.7096C16.2649 12.5852 16.2236 12.4608 16.1588 12.352L16.1538 12.3437C16.1424 12.3254 16.1302 12.3058 16.1396 12.2872Z" fill="white"/>
<path d="M16.1933 13.2084C16.1806 13.203 16.1648 13.1986 16.1539 13.2071C16.1482 13.2116 16.1445 13.2169 16.1405 13.2229C15.9882 13.449 15.7363 13.5818 15.4642 13.5818C15.4281 13.5818 15.392 13.5766 15.3513 13.5707L15.3333 13.5681C15.3141 13.5681 15.3022 13.5868 15.2916 13.6036L15.2885 13.6084L13.4955 16.3841L13.4899 16.3923C13.4794 16.4074 13.4674 16.4247 13.4793 16.4364C13.4862 16.4432 13.4931 16.4432 13.4999 16.4432C13.5066 16.4432 18.0132 14.5215 18.3587 14.3742L18.3634 14.3722C18.3777 14.3663 18.3934 14.3598 18.3934 14.3448V14.2835C18.3934 14.2468 18.3989 14.2101 18.4051 14.1783C18.4064 14.1712 18.4077 14.1625 18.405 14.1558C18.4 14.1432 18.3872 14.1378 18.3747 14.1325L16.1933 13.2084Z" fill="white"/>
<path d="M13.729 16.9908C13.7133 16.9375 13.6971 16.8825 13.6949 16.8822L18.607 14.7876C18.607 14.7876 18.614 14.7877 18.6208 14.7945C18.6478 14.821 18.6704 14.8394 18.6922 14.8558C18.6955 14.8583 18.6993 14.8605 18.7031 14.8627C18.7132 14.8686 18.7234 14.8745 18.7241 14.8852C18.7243 14.8889 18.7239 14.8917 18.7233 14.8953L18.3023 17.48L18.3008 17.4902C18.2981 17.5106 18.2951 17.5333 18.2762 17.5333C18.0479 17.5466 17.8458 17.6763 17.7272 17.872L17.7253 17.8751C17.7198 17.8844 17.7145 17.8932 17.7049 17.898C17.6968 17.9021 17.6859 17.9003 17.6771 17.8985L13.7601 17.0904C13.7583 17.09 13.7438 17.0411 13.729 16.9908Z" fill="white"/>
</svg>
