<svg width="19" height="22" viewBox="0 0 19 22" fill="none" xmlns="http://www.w3.org/2000/svg">
<path d="M1.94449 19.4008L0.259995 0.5H18.776L17.0892 19.3978L9.50674 21.5L1.94449 19.4008Z" fill="#1572B6"/>
<path d="M9.51799 19.8935L15.6455 18.1948L17.087 2.04575H9.51799V19.8935Z" fill="#33A9DC"/>
<path d="M9.51799 8.89325H12.5855L12.797 6.5195H9.51799V4.20125H15.3305L15.275 4.823L14.7057 11.2115H9.51799V8.89325V8.89325Z" fill="white"/>
<path d="M9.53223 14.9135L9.52173 14.9165L6.94023 14.219L6.77523 12.3703H4.44798L4.77273 16.01L9.52098 17.3285L9.53223 17.3255V14.9135V14.9135Z" fill="#EBEBEB"/>
<path d="M12.3882 11.1133L12.1092 14.2175L9.52399 14.915V17.327L14.276 16.01L14.3112 15.6185L14.714 11.1133H12.3882V11.1133Z" fill="white"/>
<path d="M9.52624 4.20125V6.5195H3.92674L3.88024 5.99825L3.77449 4.823L3.71899 4.20125H9.52624V4.20125ZM9.51799 8.89325V11.2115H6.96874L6.92224 10.6902L6.81724 9.515L6.76174 8.89325H9.51799V8.89325Z" fill="#EBEBEB"/>
</svg>
