<svg width="20" height="22" viewBox="0 0 20 22" fill="none" xmlns="http://www.w3.org/2000/svg">
<path d="M2.42649 19.4008L0.741241 0.5H19.2587L17.5712 19.3978L9.98874 21.5L2.42649 19.4008Z" fill="#E44F26"/>
<path d="M10 19.8935L16.1275 18.1948L17.569 2.04575H10V19.8935Z" fill="#F1662A"/>
<path d="M10 9.05525H6.9325L6.721 6.6815H10V4.36325H4.1875L4.243 4.98575L4.81225 11.3735H10V9.05525V9.05525ZM10 15.0755L9.9895 15.0785L7.408 14.3818L7.243 12.533H4.91575L5.2405 16.172L9.9895 17.4905L10 17.4875V15.0755Z" fill="#EBEBEB"/>
<path d="M9.99176 9.05525V11.3735H12.8463L12.5778 14.3803L9.99176 15.0778V17.4897L14.7445 16.172L14.779 15.7805L15.3235 9.67775L15.3805 9.05525H9.99176V9.05525ZM9.99176 4.36325V6.6815H15.5913L15.6378 6.161L15.7435 4.98575L15.799 4.36325H9.99176V4.36325Z" fill="white"/>
</svg>
