<svg width="22" height="22" viewBox="0 0 22 22" fill="none" xmlns="http://www.w3.org/2000/svg">
<path d="M0.779999 0.5H21.78V21.5H0.779999V0.5Z" fill="#F5DE19"/>
<path d="M14.8867 16.9062C15.0657 17.2697 15.3437 17.5752 15.6887 17.7875C16.0337 17.9998 16.4317 18.1103 16.8367 18.1062C17.6542 18.1062 18.177 17.6975 18.177 17.1312C18.177 16.4562 17.64 16.2147 16.74 15.821L16.2465 15.6095C14.8215 15.0027 13.8765 14.243 13.8765 12.6365C13.8765 11.1567 15.0015 10.0295 16.7662 10.0295C17.3375 9.98825 17.9083 10.1161 18.4074 10.3971C18.9065 10.6781 19.3118 11.0999 19.5727 11.6097L18.03 12.596C17.9295 12.3432 17.7546 12.1269 17.5283 11.9758C17.3021 11.8247 17.0353 11.746 16.7632 11.75C16.6446 11.7381 16.5247 11.7511 16.4113 11.7881C16.2979 11.8251 16.1935 11.8853 16.1047 11.9649C16.0158 12.0445 15.9446 12.1417 15.8954 12.2504C15.8462 12.359 15.8202 12.4767 15.819 12.596C15.819 13.1878 16.1857 13.4278 17.0325 13.796L17.526 14.0075C19.203 14.7268 20.151 15.4595 20.151 17.1072C20.151 18.884 18.7552 19.8575 16.881 19.8575C16.1507 19.904 15.4226 19.7382 14.7845 19.3801C14.1463 19.022 13.6255 18.4868 13.2847 17.8392L14.8867 16.9062ZM7.9155 17.0773C8.22525 17.627 8.50725 18.092 9.18525 18.092C9.83325 18.092 10.2427 17.8385 10.2427 16.8522V10.142H12.216V16.8785C12.216 18.9215 11.016 19.8515 9.26925 19.8515C8.65181 19.8852 8.03861 19.7314 7.51026 19.4101C6.98191 19.0888 6.56314 18.6152 6.309 18.0515L7.9155 17.0773Z" fill="black"/>
</svg>
